<svg width="42" height="40" viewBox="0 0 42 40" fill="none" xmlns="http://www.w3.org/2000/svg">
<path d="M18.0375 17.8291C17.8662 17.2991 17.712 16.7863 17.5407 16.2564C17.3694 15.7265 17.2153 15.2308 17.0782 14.735C16.9412 14.2564 16.8213 13.812 16.7014 13.4017H16.6671C16.513 14.1368 16.3245 14.8718 16.0847 15.6068C15.8278 16.4273 15.5708 17.282 15.2968 18.1368C15.0569 19.0085 14.8 19.812 14.5431 20.5299H18.894C18.7912 20.1692 18.6542 19.7436 18.5 19.2974C18.3458 18.8376 18.1917 18.3419 18.0375 17.8291ZM33.831 0H7.28009C3.25463 0 0 3.24786 0 7.26496V32.735C0 36.7521 3.25463 40 7.28009 40H33.831C37.8565 40 41.1111 36.7521 41.1111 32.735V7.26496C41.1111 3.24786 37.8565 0 33.831 0ZM25.1806 28.2564H21.5988C21.4806 28.2735 21.3606 28.188 21.3264 28.0684L19.9218 24H13.5495L12.2477 28.0171C12.2134 28.1709 12.0764 28.2735 11.9222 28.2581H8.70185C8.51343 28.2581 8.46204 28.1538 8.51343 27.9504L14.0292 12.1026C14.0806 11.9316 14.1319 11.7436 14.2005 11.5385C14.269 11.1795 14.3032 10.8034 14.3032 10.4273C14.2861 10.3419 14.3546 10.2564 14.4403 10.2393H18.8769C19.0139 10.2393 19.0824 10.2906 19.0995 10.3761L25.3519 27.9829C25.4032 28.1692 25.3519 28.2564 25.1806 28.2564ZM31.0046 28C31.0046 28.188 30.9378 28.2735 30.7837 28.2735H27.4245C27.2532 28.2735 27.1676 28.1692 27.1676 28V14.8376C27.1676 14.6667 27.2378 14.5983 27.392 14.5983H30.7837C30.9378 14.5983 31.0046 14.6838 31.0046 14.8376V28ZM30.6466 12.5641C30.4443 12.7691 30.2004 12.9286 29.9313 13.0318C29.6621 13.135 29.3739 13.1795 29.0861 13.1624C28.5208 13.1795 27.9727 12.9573 27.5599 12.5641C27.1674 12.1359 26.9584 11.5714 26.9775 10.9915C26.9603 10.4103 27.183 9.86325 27.5924 9.47008C28.0069 9.07692 28.5551 8.87179 29.1204 8.87179C29.7901 8.87179 30.3006 9.07692 30.6792 9.47008C31.056 9.88034 31.2616 10.4273 31.2444 10.9915C31.2616 11.5726 31.056 12.1368 30.6466 12.5641Z" fill="#F0F0F0"/>
</svg>
