<svg width="42" height="46" viewBox="0 0 42 46" fill="none" xmlns="http://www.w3.org/2000/svg">
<path d="M17.6842 0.602381C18.3842 0.200794 19.1211 0 19.8947 0C20.6684 0 21.4053 0.200794 22.1053 0.602381L37.5789 9.41905C38.2789 9.82064 38.8224 10.35 39.2092 11.0071C39.5961 11.6643 39.7895 12.3944 39.7895 13.1976V22.5071C39.1263 22.0325 38.4263 21.6218 37.6895 21.275C36.9526 20.9282 36.1789 20.627 35.3684 20.3714V15.5524L27.4105 20.0976C25.3474 20.6087 23.4776 21.4758 21.8013 22.6988C20.125 23.9218 18.7526 25.4095 17.6842 27.1619V23.1643L4.42105 15.5524V30.5571L15.5842 36.9643C15.7316 38.1325 16.0079 39.2552 16.4132 40.3321C16.8184 41.4091 17.3342 42.4222 17.9605 43.3714C17.8868 43.3349 17.8408 43.3075 17.8224 43.2893C17.8039 43.271 17.7579 43.2437 17.6842 43.2071L2.21053 34.3905C1.51053 33.9889 0.967105 33.4595 0.580263 32.8024C0.193421 32.1452 0 31.4151 0 30.6119V13.1976C0 12.3944 0.193421 11.6643 0.580263 11.0071C0.967105 10.35 1.51053 9.82064 2.21053 9.41905L17.6842 0.602381ZM19.8947 4.38095L6.79737 11.8833L19.8947 19.3857L32.9921 11.8833L19.8947 4.38095ZM30.9474 46C27.8895 46 25.2829 44.9321 23.1276 42.7964C20.9724 40.6607 19.8947 38.0778 19.8947 35.0476C19.8947 32.0175 20.9724 29.4345 23.1276 27.2988C25.2829 25.1631 27.8895 24.0952 30.9474 24.0952C34.0053 24.0952 36.6118 25.1631 38.7671 27.2988C40.9224 29.4345 42 32.0175 42 35.0476C42 38.0778 40.9224 40.6607 38.7671 42.7964C36.6118 44.9321 34.0053 46 30.9474 46ZM32.0526 34.6095V28.4762H29.8421V35.4857L34.5947 40.1952L36.1421 38.6619L32.0526 34.6095Z" fill="#F0F0F0"/>
</svg>
