<svg width="45" height="40" viewBox="0 0 45 40" fill="none" xmlns="http://www.w3.org/2000/svg">
<path d="M0 8.88889V4.44444C0 3.22222 0.435185 2.17593 1.30556 1.30556C2.17593 0.435185 3.22222 0 4.44444 0H40C41.2222 0 42.2685 0.435185 43.1389 1.30556C44.0093 2.17593 44.4444 3.22222 44.4444 4.44444V8.88889H40V4.44444H4.44444V8.88889H0ZM13.3333 40V35.5556H4.44444C3.22222 35.5556 2.17593 35.1204 1.30556 34.25C0.435185 33.3796 0 32.3333 0 31.1111V26.6667H4.44444V31.1111H40V26.6667H44.4444V31.1111C44.4444 32.3333 44.0093 33.3796 43.1389 34.25C42.2685 35.1204 41.2222 35.5556 40 35.5556H31.1111V40H13.3333ZM6.22222 17.7778L12 12L8.88889 8.88889L0 17.7778L8.88889 26.6667L12 23.5556L6.22222 17.7778ZM38.2222 17.7778L32.4444 23.5556L35.5556 26.6667L44.4444 17.7778L35.5556 8.88889L32.4444 12L38.2222 17.7778Z" fill="#F0F0F0"/>
</svg>
