<svg width="1410" height="598" viewBox="0 0 1410 598" fill="none" xmlns="http://www.w3.org/2000/svg">
<path d="M30.5 0L30.5 598M60.5 0L60.5 598M90.5 0L90.5 598M120.5 0L120.5 598M150.5 0L150.5 598M180.5 0L180.5 598M210.5 0L210.5 598M240.5 0L240.5 598M270.5 0L270.5 598M300.5 0L300.5 598M330.5 0L330.5 598M360.5 0L360.5 598M390.5 0L390.5 598M420.5 0L420.5 598M450.5 0L450.5 598M480.5 0L480.5 598M510.5 0L510.5 598M540.5 0V598M570.5 0V598M600.5 0V598M630.5 0V598M660.5 0V598M690.5 0V598M720.5 0V598M750.5 0V598M780.5 0V598M810.5 0V598M840.5 0V598M870.5 0V598M900.5 0V598M930.5 0V598M960.5 0V598M990.5 0V598M1020.5 0V598M1050.5 0V598M1080.5 0V598M1110.5 0V598M1140.5 0V598M1170.5 0V598M1200.5 0V598M1230.5 0V598M1260.5 0V598M1290.5 0V598M1320.5 0V598M1350.5 0V598M1380.5 0V598M1410 28.5L0 28.4999M1410 58.5L0 58.4999M1410 88.5L0 88.4999M1410 118.5L0 118.5M1410 148.5L0 148.5M1410 178.5L0 178.5M1410 208.5L0 208.5M1410 238.5L0 238.5M1410 268.5L0 268.5M1410 298.5L0 298.5M1410 328.5L0 328.5M1410 358.5L0 358.5M1410 388.5L0 388.5M1410 418.5L0 418.5M1410 448.5L0 448.5M1410 478.5L0 478.5M1410 508.5L0 508.5M1410 538.5L0 538.5M1410 568.5L0 568.5" stroke="url(#paint0_radial_601_234)"/>
<defs>
<radialGradient id="paint0_radial_601_234" cx="0" cy="0" r="1" gradientUnits="userSpaceOnUse" gradientTransform="translate(705 249.5) rotate(90) scale(426.5 1005.63)">
<stop stop-color="#434343"/>
<stop offset="1" stop-opacity="0"/>
</radialGradient>
</defs>
</svg>
