<svg width="42" height="40" viewBox="0 0 42 40" fill="none" xmlns="http://www.w3.org/2000/svg">
<path d="M34.286 0H6.82509C3.0557 0 0 3.04934 0 6.8109V33.1891C0 36.9507 3.0557 40 6.82509 40H34.286C38.0554 40 41.1111 36.9507 41.1111 33.1891V6.8109C41.1111 3.04934 38.0554 0 34.286 0Z" fill="#F0F0F0"/>
<path d="M9.25707 28.0505V10.4643C9.25707 10.3361 9.31231 10.2716 9.42263 10.2716L9.5972 10.2712L9.89557 10.2679L10.3102 10.2598L11.6993 10.2304L13.1888 10.2029C13.7126 10.1939 14.232 10.1891 14.7468 10.1891C16.144 10.1891 17.3206 10.3635 18.2769 10.712C19.1396 11.0032 19.9263 11.4827 20.5798 12.1155C21.1338 12.6641 21.5619 13.3262 21.8347 14.0559C22.0926 14.7661 22.2234 15.516 22.2209 16.2713C22.2209 17.7394 21.8806 18.9503 21.2003 19.9042C20.535 20.8347 19.6069 21.5464 18.5345 21.9484L18.4425 21.982C17.3227 22.3989 16.0826 22.5495 14.7226 22.559L14.5113 22.5596L14.1976 22.558L14.0394 22.5558L13.8631 22.5516L13.7568 22.5474L13.6922 22.5441L13.5334 22.5383L13.3393 22.5343L13.047 22.5322L12.982 22.5321V28.0229C12.9868 28.0566 12.9837 28.0909 12.9729 28.1232C12.9622 28.1554 12.944 28.1847 12.9199 28.2088C12.8958 28.2328 12.8665 28.2509 12.8341 28.2617C12.8018 28.2724 12.7674 28.2755 12.7337 28.2707H9.45026C9.3213 28.2707 9.25707 28.1976 9.25707 28.0505ZM12.9821 13.5742V19.3101C13.2022 19.3278 13.4229 19.337 13.6437 19.3377H14.554C15.1815 19.3356 15.8054 19.2423 16.4061 19.0609L16.5259 19.0236C17.0723 18.8616 17.5605 18.5463 17.9325 18.1152C18.2781 17.7085 18.4571 17.1481 18.4695 16.4338L18.4703 16.3538C18.4847 15.8215 18.346 15.2962 18.0703 14.8402C17.7805 14.3993 17.3616 14.0581 16.8707 13.8631C16.2296 13.6145 15.5448 13.4975 14.8573 13.5192L14.5076 13.5202L14.2869 13.5221L14.0764 13.5248L13.7793 13.5306L13.5625 13.5367L13.4499 13.5409L13.2994 13.5479L13.1713 13.5558L13.0982 13.5615L13.0351 13.5676L13.0073 13.5708L12.9821 13.5742ZM32.8841 18.2671C32.403 18.0204 31.8927 17.8351 31.3652 17.7155L31.2432 17.6893C30.6629 17.5564 30.0705 17.4832 29.4752 17.4708L29.3265 17.4691C28.9776 17.4596 28.6291 17.5014 28.2923 17.5929C28.0779 17.6405 27.8873 17.7624 27.7543 17.9369C27.6645 18.0765 27.6166 18.2389 27.6165 18.4048C27.6216 18.5657 27.6797 18.7205 27.782 18.845C27.9283 19.0159 28.1043 19.159 28.3015 19.2676L28.3612 19.2992C28.7544 19.5105 29.1596 19.6988 29.5746 19.8633C30.5002 20.1725 31.3846 20.593 32.2083 21.1155C32.7695 21.469 33.234 21.9561 33.5598 22.533C33.8338 23.0792 33.971 23.6835 33.9597 24.2942C33.9762 25.1008 33.7452 25.8931 33.2978 26.5649C32.8187 27.2468 32.1534 27.7769 31.3809 28.0921C30.5721 28.447 29.5786 28.6301 28.4009 28.6421L28.2785 28.6428C27.5484 28.6502 26.8193 28.5864 26.1015 28.4524L25.948 28.4226C25.3437 28.312 24.7555 28.1271 24.1968 27.8721C24.1406 27.8432 24.0932 27.7999 24.0593 27.7467C24.0254 27.6935 24.0062 27.6322 24.0037 27.5692V24.5695C24.0004 24.5404 24.0051 24.511 24.0173 24.4843C24.0294 24.4576 24.0486 24.4347 24.0728 24.4181C24.0965 24.4048 24.1237 24.3989 24.1508 24.4014C24.1778 24.4038 24.2035 24.4145 24.2244 24.4319C24.8842 24.8201 25.6006 25.1034 26.3479 25.2713C27.0066 25.4361 27.6822 25.5239 28.3612 25.5329C29.0045 25.5329 29.478 25.4502 29.7815 25.2851C29.9185 25.2225 30.0344 25.1216 30.1152 24.9946C30.196 24.8676 30.2381 24.72 30.2366 24.5695C30.2366 24.3314 30.0986 24.1019 29.8229 23.8816C29.7073 23.7893 29.5414 23.6888 29.3255 23.5803L29.2223 23.5296L29.1121 23.4779L29.0543 23.4516L28.9332 23.3981C28.9122 23.3889 28.8912 23.3798 28.8701 23.3708L28.7384 23.3157L28.6699 23.2877L28.5276 23.2308L28.4537 23.2019L28.3007 23.1431L28.1406 23.0833C27.2746 22.7826 26.4535 22.3659 25.6997 21.8449C25.1607 21.4707 24.7168 20.9759 24.4036 20.4C24.1324 19.8577 23.9953 19.2584 24.0037 18.6524C24.0022 17.9242 24.2026 17.2098 24.5828 16.5883C25.0164 15.904 25.6389 15.3591 26.3755 15.0197C27.1844 14.6163 28.1955 14.4144 29.4091 14.4141C30.1198 14.4084 30.83 14.459 31.5327 14.5655C32.0416 14.6299 32.5391 14.7642 33.0111 14.9646C33.0871 14.9864 33.1482 15.0423 33.1765 15.116C33.1953 15.1832 33.2044 15.2526 33.2041 15.3224V18.1021C33.2081 18.1678 33.1765 18.2308 33.1214 18.2671C33.0845 18.2854 33.0439 18.295 33.0027 18.295C32.9616 18.295 32.9209 18.2854 32.8841 18.2671Z" fill="#141414"/>
</svg>
