<svg width="33" height="40" viewBox="0 0 33 40" fill="none" xmlns="http://www.w3.org/2000/svg">
<path d="M10.0411 33.6027C8.04448 31.8207 7.46166 28.0765 8.29349 25.3639C9.73579 27.0742 11.7342 27.6159 13.8042 27.9217C16.9999 28.3936 20.1382 28.2171 23.1068 26.791C23.4464 26.6277 23.7602 26.4106 24.1313 26.1907C24.4098 26.9798 24.4823 27.7764 24.3851 28.5871C24.1485 30.5616 23.1421 32.0869 21.5414 33.2431C20.9014 33.7055 20.2241 34.1189 19.563 34.555C17.5321 35.8952 16.9826 37.4668 17.7458 39.7527C17.7639 39.8084 17.7802 39.8641 17.8212 40C16.7843 39.547 16.0268 38.8873 15.4497 38.0198C14.8402 37.1043 14.5502 36.0916 14.5349 34.9958C14.5273 34.4625 14.5273 33.9245 14.4538 33.3988C14.2745 32.1171 13.6583 31.5432 12.4974 31.5102C11.306 31.4762 10.3635 32.1954 10.1135 33.328C10.0945 33.4149 10.0668 33.5007 10.0392 33.6017L10.0411 33.6027Z" fill="#F0F0F0"/>
<path d="M0 26.1944C0 26.1944 5.45926 23.5696 10.9338 23.5696L15.0614 10.9618C15.2159 10.352 15.6671 9.9377 16.1765 9.9377C16.6859 9.9377 17.1371 10.352 17.2916 10.9618L21.4192 23.5696C27.903 23.5696 32.3529 26.1944 32.3529 26.1944C32.3529 26.1944 23.0799 1.26191 23.0618 1.21189C22.7957 0.474751 22.3464 0 21.7407 0H10.6133C10.0075 0 9.57636 0.474751 9.29206 1.21189C9.27202 1.26097 0 26.1944 0 26.1944Z" fill="#F0F0F0"/>
</svg>
