<svg width="36" height="40" viewBox="0 0 36 40" fill="none" xmlns="http://www.w3.org/2000/svg">
<path d="M0 0L3.20573 35.9893L17.5902 40L32.0149 35.9746L35.2231 0H0ZM28.5633 8.2453L27.4962 20.2345L27.4994 20.2992L27.495 20.4481V20.4468L26.7368 28.8299L26.6533 29.5746L17.6116 32.0754L17.6046 32.0818L8.57847 29.567L7.96729 22.6362H12.3935L12.7075 26.1604L17.6128 27.4899L17.6116 27.4924V27.4918L22.5351 26.1435L23.0554 20.4044H12.763L12.6747 19.4343L12.4735 17.1614L12.368 15.941H23.4466L23.8496 11.4775H6.97576L6.88745 10.508L6.68659 8.23446L6.58075 7.01402H28.6689L28.5633 8.2453Z" fill="#F0F0F0"/>
</svg>
