<svg width="29" height="42" viewBox="0 0 29 42" fill="none" xmlns="http://www.w3.org/2000/svg">
<path d="M14.3337 1H7.66733C5.89905 1 4.20318 1.70245 2.95282 2.95282C1.70245 4.20318 1 5.89905 1 7.66733C1 9.43562 1.70245 11.1315 2.95282 12.3818C4.20318 13.6322 5.89905 14.3347 7.66733 14.3347M14.3337 1V14.3347M14.3337 1H21C22.7683 1 24.4641 1.70245 25.7145 2.95282C26.9649 4.20318 27.6673 5.89905 27.6673 7.66733C27.6673 9.43562 26.9649 11.1315 25.7145 12.3818C24.4641 13.6322 22.7693 14.3337 21.001 14.3337M7.66733 14.3347H14.3337M7.66733 14.3347C5.89931 14.3347 4.2037 15.037 2.95352 16.2872C1.70334 17.5374 1.001 19.233 1.001 21.001C1.001 22.769 1.70334 24.4646 2.95352 25.7148C4.2037 26.965 5.89931 27.6673 7.66733 27.6673M14.3337 14.3347V27.6673M14.3337 14.3347L21.001 14.3337M7.66733 27.6673H14.3337M7.66733 27.6673C6.34894 27.6673 5.06015 28.0583 3.96392 28.7907C2.8677 29.5231 2.01325 30.5641 1.50864 31.7821C1.00402 33.0001 0.871886 34.3404 1.12895 35.6335C1.38601 36.9266 2.02071 38.1144 2.95282 39.0468C3.88492 39.9792 5.07256 40.6142 6.36557 40.8717C7.65858 41.1291 8.9989 40.9974 10.217 40.4931C11.4352 39.9889 12.4765 39.1347 13.2092 38.0387C13.942 36.9427 14.3333 35.6541 14.3337 34.3357V27.6673M21.001 14.3337C19.2327 14.3337 17.5368 15.0361 16.2865 16.2865C15.0361 17.5368 14.3337 19.2327 14.3337 21.001C14.3337 22.7693 15.0361 24.4651 16.2865 25.7155C17.5368 26.9659 19.2327 27.6683 21.001 27.6683C22.7693 27.6683 24.4651 26.9659 25.7155 25.7155C26.9659 24.4651 27.6683 22.7693 27.6683 21.001C27.6683 19.2327 26.9659 17.5368 25.7155 16.2865C24.4651 15.0361 22.7693 14.3337 21.001 14.3337Z" stroke="#F0F0F0" stroke-width="2"/>
</svg>
