<svg width="42" height="40" viewBox="0 0 42 40" fill="none" xmlns="http://www.w3.org/2000/svg">
<path d="M20.5078 0C9.17724 0 0 9.18237 0 20.5078C0 29.5705 5.87548 37.2558 14.0222 39.9646C15.0476 40.1577 15.4236 39.5236 15.4236 38.9785C15.4236 38.4914 15.4065 37.2011 15.3979 35.4922C9.69335 36.7295 8.49023 32.7407 8.49023 32.7407C7.55712 30.3738 6.20873 29.7414 6.20873 29.7414C4.35107 28.4699 6.35229 28.4956 6.35229 28.4956C8.41161 28.6391 9.4934 30.6079 9.4934 30.6079C11.322 33.7439 14.2939 32.8381 15.4663 32.3134C15.6509 30.9873 16.1789 30.0832 16.7651 29.5705C12.2107 29.0578 7.42382 27.2942 7.42382 19.4363C7.42382 17.1975 8.2185 15.3689 9.53442 13.9333C9.3037 13.4155 8.61157 11.3306 9.71386 8.50561C9.71386 8.50561 11.4314 7.95532 15.3535 10.6077C16.9941 10.1514 18.7373 9.92577 20.4805 9.91552C22.2236 9.92577 23.9668 10.1514 25.6074 10.6077C29.5039 7.95532 31.2214 8.50561 31.2214 8.50561C32.3237 11.3306 31.6316 13.4155 31.4265 13.9333C32.7339 15.3689 33.5285 17.1975 33.5285 19.4363C33.5285 27.3147 28.7348 29.0493 24.1719 29.5534C24.8896 30.1687 25.5561 31.4265 25.5561 33.3474C25.5561 36.092 25.5305 38.2966 25.5305 38.9631C25.5305 39.5014 25.8894 40.1423 26.9404 39.9372C35.1452 37.2473 41.0156 29.5569 41.0156 20.5078C41.0156 9.18237 31.8332 0 20.5078 0Z" fill="#F0F0F0"/>
</svg>
