<svg width="49" height="44" viewBox="0 0 49 44" fill="none" xmlns="http://www.w3.org/2000/svg">
<path d="M2.02616 32.7846V34.694L2.57641 33.7519C2.77243 34.0192 2.99565 34.2753 3.23323 34.5183C4.32431 35.6346 5.95287 36.7113 7.63902 37.5861C9.3329 38.4649 11.1666 39.182 12.713 39.5412C13.4811 39.7196 14.2293 39.8219 14.8767 39.7874C15.4809 39.7551 16.2491 39.5887 16.7243 38.961L16.7603 38.9133L16.7905 38.8617L31.602 13.5031L32.0823 12.6808L31.2844 12.161C30.4831 11.6388 27.687 10.0541 24.9097 8.49014C24.2125 8.09754 23.5143 7.70504 22.8443 7.32839C20.8146 6.18741 19.0439 5.192 18.345 4.78052L17.4803 4.27145L16.9742 5.1379L2.18338 30.4595L2.18069 30.4638C1.7265 31.1828 1.73127 31.9689 1.98357 32.6723C1.99705 32.7099 2.01126 32.7473 2.02616 32.7846Z" stroke="#F0F0F0" stroke-width="2"/>
<path d="M46.5819 30.734V30.728L46.4453 30.4943L31.6338 5.13879L31.6339 5.13875L31.6275 5.12813C29.279 1.21979 24.2252 -0.190811 20.0914 2.10613C15.9219 4.42292 14.6646 9.43361 17.0027 13.4983L17.0027 13.4983L17.006 13.5041L31.8175 38.8626L31.8175 38.8627L31.824 38.8735C34.1725 42.7802 39.2263 44.1907 43.36 41.8938L43.3684 41.8892L43.3767 41.8843C47.2541 39.6314 48.7498 34.6457 46.5819 30.734Z" fill="#1B1B1B" stroke="#F0F0F0" stroke-width="2"/>
<path d="M9.43497 42.9999C14.0696 42.9999 17.8699 39.3296 17.8699 34.7495C17.8699 30.1694 14.0696 26.4991 9.43497 26.4991C4.80032 26.4991 1 30.1694 1 34.7495C1 39.3296 4.80032 42.9999 9.43497 42.9999Z" fill="#1B1B1B" stroke="#F0F0F0" stroke-width="2"/>
</svg>
