<svg width="40" height="40" viewBox="0 0 40 40" fill="none" xmlns="http://www.w3.org/2000/svg">
<path d="M29.6853 37.5024C29.5366 37.5812 29.5491 37.6062 29.6916 37.5337C29.7355 37.5158 29.7757 37.4899 29.8103 37.4574C29.8103 37.4312 29.8103 37.4312 29.6853 37.5024ZM29.9853 37.3399C29.9141 37.3987 29.9141 37.3987 29.9991 37.3599C30.0305 37.3452 30.0592 37.3254 30.0841 37.3012C30.0841 37.2674 30.0641 37.2749 29.9853 37.3399ZM30.1803 37.2224C30.1091 37.2812 30.1091 37.2812 30.1941 37.2424C30.2256 37.2274 30.2543 37.2071 30.2791 37.1824C30.2791 37.1512 30.2591 37.1574 30.1803 37.2224ZM30.3778 37.1062C30.3066 37.1649 30.3066 37.1649 30.3891 37.1249C30.4353 37.0999 30.474 37.0737 30.474 37.0662C30.474 37.0349 30.4541 37.0412 30.3778 37.1062ZM30.644 36.9299C30.5078 37.0212 30.4603 37.0799 30.5853 37.0149C30.669 36.9637 30.8115 36.8512 30.7865 36.8512C30.7328 36.8712 30.6878 36.9049 30.6428 36.9299H30.644ZM18.6907 0.00918772C18.5994 0.0154378 18.3257 0.0404384 18.0857 0.0604388C12.4009 0.575449 7.08228 3.63551 3.71113 8.34936C1.84815 10.9347 0.637178 13.9319 0.181244 17.0858C0.0199994 18.1858 0 18.5108 0 20.0021C0 21.4921 0.0199994 21.8121 0.181244 22.9122C1.26996 30.4261 6.61479 36.7337 13.8596 39.0712C15.1633 39.4875 16.5295 39.775 18.0857 39.9512C18.6907 40.0163 21.3068 40.0163 21.9118 39.9512C24.6017 39.6512 26.8729 38.9875 29.1203 37.8412C29.4653 37.6662 29.5303 37.62 29.4841 37.5812C28.3877 36.1319 27.3007 34.6756 26.2229 33.2124L23.0268 28.896L19.0232 22.9647C17.6914 20.9787 16.346 19.0019 14.987 17.0345C14.9733 17.0345 14.9558 19.6708 14.9483 22.8859C14.9345 28.5173 14.9345 28.746 14.8633 28.876C14.795 29.0331 14.6725 29.1604 14.5183 29.2348C14.3946 29.2935 14.2833 29.306 13.6921 29.306H13.0158L12.8396 29.196C12.7292 29.1252 12.6395 29.0264 12.5796 28.9098L12.4946 28.7335L12.5146 13.0557L12.6384 12.8995C12.7174 12.8034 12.8147 12.7239 12.9246 12.6657C13.0883 12.5869 13.1533 12.5744 13.8296 12.5744C14.6233 12.5744 14.7545 12.6057 14.9633 12.8344C16.5851 15.2468 18.193 17.6686 19.7869 20.0996C22.3856 24.0397 25.9329 29.416 27.6766 32.0536L30.8478 36.8524L31.004 36.7487C32.528 35.7359 33.9091 34.5229 35.1102 33.1424C37.6295 30.2587 39.2643 26.7098 39.8188 22.9209C39.98 21.8209 40 21.4946 40 20.0046C40 18.5133 39.98 18.1946 39.8188 17.0945C38.73 9.58063 33.3852 3.273 26.1404 0.934207C24.7864 0.505349 23.3928 0.213464 21.9806 0.0629388C21.6018 0.024188 19.0169 -0.0220629 18.6919 0.0116878L18.6907 0.00918772ZM26.8742 12.1057C26.9672 12.1514 27.0501 12.2151 27.1181 12.2933C27.1862 12.3714 27.2379 12.4623 27.2704 12.5607C27.3041 12.6657 27.3104 14.8395 27.3041 19.7358L27.2904 26.766L26.0542 24.8659L24.8105 22.9647V17.8608C24.8105 14.552 24.8242 12.6969 24.8417 12.6057C24.9029 12.3965 25.0433 12.2193 25.233 12.1119C25.388 12.0332 25.448 12.0269 26.0667 12.0269C26.6454 12.0269 26.7442 12.0332 26.8742 12.1057Z" fill="#F0F0F0"/>
</svg>
