<svg width="40" height="45" viewBox="0 0 40 45" fill="none" xmlns="http://www.w3.org/2000/svg">
<path d="M20.0085 45C19.4034 45 18.806 44.8425 18.2742 44.5369L12.7596 41.2781C11.9348 40.8188 12.3369 40.6556 12.6093 40.5619C13.7066 40.1794 13.9302 40.0931 15.1026 39.4275C15.2266 39.3581 15.3882 39.3825 15.5141 39.4556L19.751 41.9663C19.8304 42.007 19.9183 42.0283 20.0075 42.0283C20.0967 42.0283 20.1847 42.007 20.264 41.9663L36.7871 32.4469C36.8638 32.4008 36.9273 32.3356 36.9714 32.2577C37.0156 32.1799 37.0388 32.092 37.0388 32.0026V12.9733C37.0391 12.8821 37.0157 12.7924 36.9709 12.7129C36.9261 12.6333 36.8615 12.5667 36.7833 12.5195L20.2677 3.00957C20.1904 2.96479 20.1026 2.9412 20.0132 2.9412C19.9237 2.9412 19.8359 2.96479 19.7586 3.00957L3.24299 12.5195C3.16405 12.5654 3.09845 12.6311 3.05265 12.71C3.00686 12.7889 2.98244 12.8783 2.98182 12.9695V31.9969C2.98182 32.1788 3.0814 32.3532 3.23923 32.4394L7.76363 35.0475C10.2212 36.2738 11.7225 34.83 11.7225 33.3769V14.597C11.7215 14.534 11.7332 14.4715 11.7569 14.4131C11.7807 14.3548 11.8159 14.3018 11.8607 14.2573C11.9054 14.2129 11.9586 14.1779 12.0172 14.1544C12.0758 14.1309 12.1385 14.1195 12.2016 14.1208H14.2947C14.5559 14.1208 14.7701 14.327 14.7701 14.597V33.3844C14.7701 36.6544 12.9851 38.5313 9.8774 38.5313C8.92104 38.5313 8.1676 38.5313 6.06698 37.5L1.73235 35.0063C1.20548 34.6992 0.768338 34.2599 0.464417 33.7319C0.160495 33.204 0.000381206 32.6058 0 31.9969V12.9695C0 11.732 0.661374 10.5752 1.73235 9.96579L18.2742 0.442709C18.8069 0.152231 19.4042 0 20.0113 0C20.6183 0 21.2156 0.152231 21.7483 0.442709L38.2677 9.96766C39.3349 10.5845 40 11.7358 40 12.9733V32.0026C39.9986 32.6105 39.8381 33.2075 39.5342 33.7344C39.2303 34.2613 38.7937 34.6997 38.2677 35.0063L21.7483 44.5294C21.2185 44.8334 20.6177 44.9925 20.0066 44.9906V45H20.0085ZM25.1116 31.8882C17.8815 31.8882 16.3671 28.5769 16.3671 25.7982C16.3671 25.5357 16.5795 25.3238 16.8444 25.3238H18.9788C19.2156 25.3238 19.4128 25.4945 19.4504 25.727C19.7736 27.8982 20.7337 28.9932 25.1059 28.9932C28.5875 28.9932 30.0681 28.2076 30.0681 26.3645C30.0681 25.3032 29.6454 24.5157 24.236 23.987C19.7116 23.5407 16.9158 22.547 16.9158 18.9357C16.9158 15.6076 19.7285 13.6276 24.4389 13.6276C29.728 13.6276 32.351 15.4595 32.6817 19.397C32.6874 19.4633 32.6793 19.53 32.6578 19.5929C32.6363 19.6559 32.602 19.7137 32.5569 19.7627C32.5119 19.8117 32.4571 19.8508 32.3961 19.8776C32.3351 19.9044 32.2692 19.9182 32.2025 19.9182H30.055C29.9468 19.9181 29.8419 19.881 29.7579 19.8131C29.6738 19.7452 29.6155 19.6506 29.5927 19.5451C29.076 17.2633 27.8266 16.532 24.4314 16.532C20.6304 16.532 20.187 17.8539 20.187 18.8439C20.187 20.0439 20.7074 20.3964 25.8368 21.0732C30.9155 21.7464 33.328 22.6951 33.328 26.2576C33.328 29.8482 30.3236 31.9088 25.089 31.9088L25.1116 31.8882Z" fill="#F0F0F0"/>
</svg>
