<svg width="41" height="40" viewBox="0 0 41 40" fill="none" xmlns="http://www.w3.org/2000/svg">
<path fill-rule="evenodd" clip-rule="evenodd" d="M20.3125 0C24.3299 0 28.2571 1.17298 31.5975 3.37061C34.9379 5.56823 37.5414 8.69181 39.0788 12.3463C40.6162 16.0009 41.0185 20.0222 40.2347 23.9018C39.4509 27.7814 37.5164 31.3451 34.6756 34.1421C31.8348 36.9392 28.2155 38.844 24.2753 39.6157C20.335 40.3874 16.2509 39.9913 12.5392 38.4776C8.82762 36.9638 5.65524 34.4004 3.42327 31.1114C1.19131 27.8224 0 23.9556 0 20C0 14.6957 2.14006 9.60859 5.94939 5.85786C9.75872 2.10714 14.9253 0 20.3125 0Z" fill="#F0F0F0"/>
<path d="M33.0542 8.56C32.1344 5.00857 26.1523 3.84571 20.491 5.82C16.9454 6.99307 13.6697 8.84313 10.8512 11.2643C7.73326 14.1357 7.2356 16.6357 7.44018 17.68C8.16562 21.3657 13.2916 23.7743 15.3998 25.5614V25.5714C14.7788 25.8729 10.2288 28.1429 9.16094 30.4571C8.03794 32.9029 9.33939 34.6571 10.2027 34.8928C11.4988 35.2001 12.8601 35.1001 14.0955 34.6069C15.331 34.1137 16.3787 33.2521 17.0915 32.1428C17.6807 31.2442 18.0492 30.2228 18.1681 29.1596C18.287 28.0963 18.1528 27.0205 17.7763 26.0171C18.7918 25.7631 19.8473 25.7034 20.8856 25.8414C24.449 26.2514 25.1483 28.4414 25.0148 29.3586C24.9521 29.685 24.8186 29.9944 24.6236 30.2655C24.4286 30.5367 24.1765 30.7633 23.8846 30.93C23.635 31.0828 23.5581 31.1343 23.5799 31.2486C23.6104 31.4129 23.725 31.4071 23.9383 31.3714C24.4738 31.2054 24.9456 30.8835 25.2916 30.4482C25.6376 30.0129 25.8416 29.4846 25.8767 28.9329C25.9623 26.79 23.8715 24.3814 20.1689 24.4429C19.0934 24.4126 18.0203 24.5574 16.9929 24.8714C16.9414 24.8136 16.8892 24.7564 16.8362 24.7C14.5466 22.2957 10.3158 20.5943 10.4943 17.3614C10.5596 16.1857 10.9746 13.0914 18.6193 9.33714C24.8872 6.26143 29.9043 7.10857 30.772 8.98428C32.011 11.6643 28.0907 16.6429 21.582 17.3614C20.8626 17.5052 20.1196 17.4877 19.408 17.3101C18.6965 17.1326 18.0346 16.7995 17.4716 16.3357C17.1292 15.9643 17.0785 15.9486 16.9508 16.0171C16.7433 16.13 16.8753 16.4586 16.9508 16.6529C17.2 17.0951 17.5364 17.4839 17.9403 17.7964C18.3441 18.109 18.8073 18.3389 19.3027 18.4729C21.8617 19.0203 24.5309 18.7604 26.9315 17.73C30.8793 16.2314 33.9581 12.0529 33.0542 8.56ZM16.2761 26.6614C16.5643 27.6396 16.5496 28.6801 16.234 29.65C16.2002 29.7509 16.1629 29.8509 16.1223 29.95C16.0817 30.049 16.0377 30.1443 15.9903 30.2357C15.7461 30.7276 15.4298 31.1815 15.0516 31.5828C13.872 32.85 12.2223 33.33 11.5157 32.9257C10.7526 32.49 11.1341 30.7029 12.5023 29.2786C13.5536 28.255 14.7657 27.405 16.0918 26.7614L16.2761 26.6614Z" fill="#141414"/>
</svg>
