<svg width="40" height="41" viewBox="0 0 40 41" fill="none" xmlns="http://www.w3.org/2000/svg">
<path d="M38.7918 4.61685L27.8969 6.61991L29.7901 0L14.6711 2.98822L14.4356 7.00019L1.18953 4.61202C0.277248 4.55846 -0.254334 5.21928 0.12236 6.13679L19.2914 40.0439C19.7039 40.7232 20.6538 40.7498 21.0704 40.0439L39.8667 6.13354C40.2908 5.36696 39.6409 4.46839 38.7918 4.61685ZM20.177 39.1143L1.40356 5.90672L14.3627 8.24315L13.7518 18.6506L19.0638 17.414L17.5826 24.73L21.6177 23.4935L19.6153 33.2696C19.5155 33.9089 20.3411 34.249 20.7494 33.334L32.5482 9.58285L26.7254 10.7164L27.5176 7.94653L38.5852 5.91171L20.177 39.1143Z" fill="#F0F0F0"/>
</svg>
